<svg width="323" height="72" viewBox="0 0 323 72" fill="none" xmlns="http://www.w3.org/2000/svg">
<path fill-rule="evenodd" clip-rule="evenodd" d="M60.3725 18.359L42.7009 36L60.3725 53.641L78.0441 36L60.3725 18.359ZM24.3162 36L60.3725 71.9939L96.4289 36L60.3725 0.00608549L24.3162 36Z" fill="url(#paint0_linear_14_592)"/>
<path fill-rule="evenodd" clip-rule="evenodd" d="M36.3725 18.359L18.7009 36L36.3725 53.641L54.0441 36L36.3725 18.359ZM0.316162 36L36.3725 71.9939L72.4289 36L36.3725 0.00608549L0.316162 36Z" fill="url(#paint1_linear_14_592)"/>
<path fill-rule="evenodd" clip-rule="evenodd" d="M39.1802 50.8438L48.3726 60.0203L57.565 50.8438L48.3726 41.6674L39.1802 50.8438Z" fill="url(#paint2_linear_14_592)"/>
<path d="M36.3516 53.6674L39.18 50.8438L48.3724 60.0203L45.544 62.8438L36.3516 53.6674Z" fill="url(#paint3_linear_14_592)"/>
<path d="M36.3726 23.9829L39.201 21.1594L48.3934 30.3358L45.5649 33.1594L36.3726 23.9829Z" fill="url(#paint4_linear_14_592)"/>
<path fill-rule="evenodd" clip-rule="evenodd" d="M0.269531 36L36.332 0L48.3529 12L48.423 11.93L48.7785 12.281L49.1341 12.632L49.06 12.7059L72.3944 36L57.5452 50.8235L56.8381 50.1176L70.9802 36L36.332 1.41177L1.68374 36L36.332 70.5882L47.5778 59.3619L48.2888 60.0638L36.332 72L0.269531 36Z" fill="url(#paint5_linear_14_592)"/>
<path fill-rule="evenodd" clip-rule="evenodd" d="M96.4409 36L60.3785 72L48.3575 60L48.2874 60.07L47.9319 59.719L47.5764 59.368L47.6504 59.2941L24.316 36L39.1653 21.1765L39.8724 21.8824L25.7302 36L60.3785 70.5882L95.0267 36L60.3785 1.41178L49.1326 12.6381L48.4216 11.9362L60.3785 1.90866e-05L96.4409 36Z" fill="url(#paint6_linear_14_592)"/>
<path d="M118.605 6.67882V32.5873C118.605 33.4231 118.814 34.0499 119.232 34.4678C119.65 34.8857 120.277 35.0946 121.321 35.0946H133.23L133.648 40.9449C130.305 41.3628 125.291 41.5717 119.023 41.5717C116.307 41.5717 114.427 40.9449 112.964 39.4823C111.711 38.2287 111.084 36.3482 111.084 34.0499V6.67882H118.605V6.67882ZM145.348 41.3628H137.826V6.67882H145.348V41.3628ZM178.149 12.947H167.911V41.3628H160.181V12.947H149.944V6.67882H178.358V12.947H178.149ZM195.281 28.1996L188.386 25.6923C185.879 24.8566 183.999 23.394 182.954 21.9314C181.909 20.2599 181.283 18.1705 181.283 15.6632C181.283 11.9023 182.118 9.39503 183.999 7.93246C185.879 6.67882 189.222 6.052 193.818 6.052C198.206 6.052 201.966 6.46988 205.1 7.30564L204.682 12.5291C201.757 12.5291 198.206 12.3202 193.818 12.3202C191.729 12.3202 190.475 12.5291 189.849 12.947C189.222 13.3649 188.804 14.2006 188.804 15.6632C188.804 16.7079 189.013 17.5437 189.64 18.1705C190.057 18.5884 191.102 19.2152 192.565 19.6331L199.041 21.9314C201.757 22.7672 203.638 24.2297 204.682 25.6923C205.727 27.3638 206.354 29.4532 206.354 31.9605C206.354 35.9303 205.518 38.4376 203.638 39.9002C201.757 41.3628 198.414 41.9896 193.609 41.9896C189.64 41.9896 185.67 41.5717 181.701 40.736L182.118 35.3035C189.222 35.5125 192.982 35.5125 193.609 35.5125C195.698 35.5125 196.952 35.3035 197.788 34.8857C198.414 34.4678 198.832 33.632 198.832 32.1694C198.832 30.9158 198.623 30.08 198.206 29.6622C197.37 29.0353 196.534 28.6175 195.281 28.1996V28.1996ZM219.098 6.67882V32.5873C219.098 33.4231 219.307 34.0499 219.725 34.4678C220.143 34.8857 220.769 35.0946 221.814 35.0946H233.723L234.141 40.9449C230.798 41.3628 225.784 41.5717 219.516 41.5717C216.8 41.5717 214.92 40.9449 213.457 39.4823C211.995 38.0197 211.577 36.3482 211.577 34.0499V6.67882H219.098V6.67882ZM246.049 41.3628H238.528V6.67882H246.049V41.3628ZM282.193 6.67882V38.4376C282.193 40.3181 281.358 41.1538 279.477 41.1538H274.672C273.836 41.1538 273.209 40.9449 272.792 40.527C272.374 40.1091 271.956 39.6913 271.538 38.8555L262.554 20.4688C261.51 17.9616 260.674 16.29 260.465 15.0364H259.838C260.047 16.7079 260.256 18.5884 260.256 20.4688V41.3628H252.944V9.60397C252.944 7.72352 253.779 6.88776 255.66 6.88776H260.256C261.092 6.88776 261.719 7.0967 262.136 7.51458C262.554 7.93246 262.972 8.35034 263.39 9.1861L272.165 27.1549C273.001 28.8264 273.836 30.7069 274.672 32.7963H275.09C274.881 30.289 274.881 28.1996 274.881 26.946V6.67882H282.193V6.67882ZM299.325 26.1102H296.4C296.609 27.3638 296.818 28.6175 296.818 29.4532V41.3628H289.297V6.67882H296.818V16.499C296.818 17.9616 296.609 19.4241 296.4 20.6778H299.325L308.1 6.88776H316.457L307.473 20.6778C306.846 21.7225 306.011 22.5582 304.966 23.394V23.6029C306.22 24.4387 307.055 25.4834 307.891 26.737L317.084 41.5717H308.518L299.325 26.1102V26.1102Z" fill="black"/>
<path d="M111.084 45.9827H317.084V47.9792H111.084V45.9827Z" fill="black"/>
<path d="M115.273 61.6956L113.126 61.1937C112.395 61.0264 111.872 60.7266 111.557 60.2944C111.242 59.8622 111.084 59.2697 111.084 58.5168C111.084 57.9591 111.147 57.5106 111.272 57.1713C111.397 56.8321 111.612 56.5765 111.917 56.4045C112.222 56.2326 112.563 56.1187 112.938 56.0629C113.313 56.0072 113.816 55.9793 114.447 55.9793C115.668 55.9979 116.694 56.0908 117.524 56.2581L117.434 57.1504C116.464 57.1039 115.488 57.0807 114.507 57.0807C114.067 57.0807 113.741 57.09 113.531 57.1086C113.321 57.1272 113.116 57.183 112.916 57.2759C112.715 57.3689 112.583 57.5152 112.518 57.7151C112.453 57.9149 112.42 58.1914 112.42 58.5447C112.42 59.0559 112.518 59.4184 112.713 59.6321C112.908 59.8459 113.246 60.0086 113.726 60.1201L115.828 60.6081C116.599 60.7847 117.139 61.0868 117.449 61.5144C117.76 61.9419 117.915 62.5414 117.915 63.3129C117.915 64.3725 117.657 65.0743 117.142 65.4182C116.626 65.7621 115.728 65.9341 114.447 65.9341C113.356 65.9341 112.285 65.8458 111.234 65.6692L111.324 64.7629C113.006 64.8187 114.062 64.8419 114.492 64.8326C115.313 64.8326 115.866 64.735 116.151 64.5398C116.436 64.3446 116.579 63.9264 116.579 63.285C116.579 62.7552 116.481 62.3857 116.286 62.1766C116.091 61.9675 115.753 61.8071 115.273 61.6956ZM129.402 57.2341H126.054V65.7667H124.733V57.2341H121.4V56.1466H129.402V57.2341ZM138.036 62.7552H133.773L132.752 65.7667H131.386L134.718 56.4812C134.779 56.2581 134.944 56.1466 135.214 56.1466H136.595C136.865 56.1466 137.03 56.2581 137.091 56.4812L140.423 65.7667H139.057L138.036 62.7552ZM137.676 61.6956L136.37 57.8754C136.28 57.6338 136.195 57.3735 136.115 57.0947H135.694L135.439 57.8754L134.133 61.6956H137.676ZM151.535 65.7667H150.124L149.208 62.7552C149.078 62.3927 148.903 62.1348 148.683 61.9814C148.462 61.8281 148.177 61.7514 147.827 61.7514C147.477 61.7514 147.049 61.7491 146.543 61.7444C146.038 61.7398 145.705 61.7374 145.545 61.7374V65.7667H144.239V56.1466C145.079 56.0629 146.27 56.0211 147.812 56.0211C149.043 56.0211 149.909 56.2186 150.409 56.6136C150.909 57.0087 151.16 57.736 151.16 58.7956C151.16 59.5857 151.012 60.1759 150.717 60.5663C150.422 60.9567 149.934 61.1937 149.253 61.2773V61.347C149.533 61.4121 149.788 61.5632 150.019 61.8002C150.249 62.0372 150.419 62.3462 150.529 62.7273L151.535 65.7667ZM145.545 60.6918H147.782C148.562 60.6825 149.098 60.5523 149.388 60.3014C149.678 60.0504 149.824 59.5717 149.824 58.8653C149.824 58.1682 149.678 57.6965 149.388 57.4502C149.098 57.2039 148.562 57.0807 147.782 57.0807C146.681 57.0807 145.935 57.0854 145.545 57.0947V60.6918ZM162.767 57.2341H159.419V65.7667H158.098V57.2341H154.765V56.1466H162.767V57.2341ZM174.254 56.1466V62.086C174.254 63.4895 173.973 64.4841 173.413 65.0696C172.852 65.6552 171.897 65.948 170.546 65.948C169.144 65.948 168.156 65.6552 167.581 65.0696C167.005 64.4841 166.717 63.4895 166.717 62.086V56.1466H168.038V62.086C168.038 63.1177 168.219 63.8357 168.579 64.2401C168.939 64.6444 169.575 64.8466 170.485 64.8466C171.386 64.8466 172.019 64.6444 172.385 64.2401C172.75 63.8357 172.933 63.1177 172.933 62.086V56.1466H174.254ZM179.15 65.7667V56.1466C179.991 56.0629 181.177 56.0211 182.708 56.0211C183.969 56.0211 184.84 56.2326 185.32 56.6555C185.801 57.0784 186.041 57.8708 186.041 59.0326C186.041 60.1945 185.808 60.9869 185.343 61.4098C184.877 61.8327 184.049 62.0442 182.858 62.0442C182.038 62.0442 181.242 62.0023 180.471 61.9187V65.7667H179.15ZM180.471 60.9846H182.693C183.464 60.9753 183.992 60.8382 184.277 60.5733C184.562 60.3083 184.705 59.7948 184.705 59.0326C184.705 58.2705 184.56 57.7546 184.269 57.485C183.979 57.2155 183.454 57.0807 182.693 57.0807C181.602 57.0807 180.861 57.0854 180.471 57.0947V60.9846ZM194.075 61.6956L191.928 61.1937C191.197 61.0264 190.675 60.7266 190.359 60.2944C190.044 59.8622 189.886 59.2697 189.886 58.5168C189.886 57.9591 189.949 57.5106 190.074 57.1713C190.199 56.8321 190.414 56.5765 190.72 56.4045C191.025 56.2326 191.365 56.1187 191.74 56.0629C192.116 56.0072 192.619 55.9793 193.249 55.9793C194.47 55.9979 195.496 56.0908 196.327 56.2581L196.237 57.1504C195.266 57.1039 194.29 57.0807 193.309 57.0807C192.869 57.0807 192.544 57.09 192.333 57.1086C192.123 57.1272 191.918 57.183 191.718 57.2759C191.518 57.3689 191.385 57.5152 191.32 57.7151C191.255 57.9149 191.222 58.1914 191.222 58.5447C191.222 59.0559 191.32 59.4184 191.515 59.6321C191.71 59.8459 192.048 60.0086 192.529 60.1201L194.63 60.6081C195.401 60.7847 195.942 61.0868 196.252 61.5144C196.562 61.9419 196.717 62.5414 196.717 63.3129C196.717 64.3725 196.459 65.0743 195.944 65.4182C195.429 65.7621 194.53 65.9341 193.249 65.9341C192.158 65.9341 191.087 65.8458 190.036 65.6692L190.127 64.7629C191.808 64.8187 192.864 64.8419 193.294 64.8326C194.115 64.8326 194.668 64.735 194.953 64.5398C195.238 64.3446 195.381 63.9264 195.381 63.285C195.381 62.7552 195.283 62.3857 195.088 62.1766C194.893 61.9675 194.555 61.8071 194.075 61.6956ZM208.131 56.1466V63.8148C208.131 64.4283 208.467 64.735 209.137 64.735H212.875L212.935 65.6831C212.065 65.7482 210.728 65.7807 208.927 65.7807C207.526 65.7807 206.825 65.1765 206.825 63.9682V56.1466H208.131ZM222.426 62.7552H218.162L217.141 65.7667H215.775L219.108 56.4812C219.168 56.2581 219.333 56.1466 219.603 56.1466H220.984C221.255 56.1466 221.42 56.2581 221.48 56.4812L224.813 65.7667H223.446L222.426 62.7552ZM222.065 61.6956L220.759 57.8754C220.669 57.6338 220.584 57.3735 220.504 57.0947H220.084L219.828 57.8754L218.522 61.6956H222.065ZM233.687 60.7475V60.8033C234.438 60.8684 234.971 61.1124 235.286 61.5353C235.602 61.9582 235.759 62.5693 235.759 63.3687C235.759 64.3353 235.514 64.9953 235.024 65.3485C234.533 65.7017 233.677 65.8783 232.456 65.8783C230.795 65.8783 229.519 65.8411 228.628 65.7667V56.1466C229.419 56.0722 230.54 56.035 231.991 56.035C233.282 56.035 234.18 56.2093 234.686 56.5579C235.191 56.9064 235.444 57.5687 235.444 58.5447C235.444 59.2418 235.304 59.7692 235.024 60.1271C234.743 60.485 234.298 60.6918 233.687 60.7475ZM229.919 60.3153H232.141C232.912 60.306 233.442 60.1898 233.732 59.9668C234.023 59.7437 234.168 59.3161 234.168 58.6841C234.168 58.0427 234.01 57.6152 233.695 57.4014C233.38 57.1876 232.792 57.0807 231.931 57.0807H229.919V60.3153ZM229.919 61.2495V64.8187C230.33 64.828 231.105 64.8326 232.246 64.8326C233.087 64.8326 233.66 64.7211 233.965 64.498C234.27 64.2749 234.423 63.8288 234.423 63.1595C234.423 62.4252 234.26 61.928 233.935 61.6677C233.61 61.4075 233.017 61.268 232.156 61.2495H229.919ZM244.003 55.9653C245.525 55.9653 246.586 56.3302 247.186 57.0598C247.787 57.7895 248.087 59.0884 248.087 60.9567C248.087 62.8249 247.787 64.1239 247.186 64.8535C246.586 65.5832 245.525 65.948 244.003 65.948C242.482 65.948 241.419 65.5832 240.813 64.8535C240.208 64.1239 239.905 62.8249 239.905 60.9567C239.905 59.0884 240.208 57.7895 240.813 57.0598C241.419 56.3302 242.482 55.9653 244.003 55.9653ZM244.003 57.0668C242.982 57.0668 242.277 57.3479 241.887 57.9103C241.496 58.4726 241.301 59.4881 241.301 60.9567C241.301 62.4253 241.496 63.4407 241.887 64.0031C242.277 64.5654 242.982 64.8466 244.003 64.8466C245.024 64.8466 245.73 64.5654 246.12 64.0031C246.51 63.4407 246.706 62.4253 246.706 60.9567C246.706 59.4881 246.51 58.4726 246.12 57.9103C245.73 57.3479 245.024 57.0668 244.003 57.0668ZM259.979 65.7667H258.568L257.652 62.7552C257.522 62.3927 257.347 62.1348 257.127 61.9814C256.907 61.8281 256.621 61.7514 256.271 61.7514C255.921 61.7514 255.493 61.7491 254.987 61.7444C254.482 61.7398 254.149 61.7374 253.989 61.7374V65.7667H252.683V56.1466C253.524 56.0629 254.715 56.0211 256.256 56.0211C257.487 56.0211 258.353 56.2186 258.853 56.6136C259.354 57.0087 259.604 57.736 259.604 58.7956C259.604 59.5857 259.456 60.1759 259.161 60.5663C258.866 60.9567 258.378 61.1937 257.697 61.2773V61.347C257.977 61.4121 258.233 61.5632 258.463 61.8002C258.693 62.0372 258.863 62.3462 258.973 62.7273L259.979 65.7667ZM253.989 60.6918H256.226C257.007 60.6825 257.542 60.5523 257.832 60.3014C258.123 60.0504 258.268 59.5717 258.268 58.8653C258.268 58.1682 258.123 57.6965 257.832 57.4502C257.542 57.2039 257.007 57.0807 256.226 57.0807C255.125 57.0807 254.379 57.0854 253.989 57.0947V60.6918ZM269.815 62.7552H265.551L264.53 65.7667H263.164L266.497 56.4812C266.557 56.2581 266.722 56.1466 266.992 56.1466H268.373C268.644 56.1466 268.809 56.2581 268.869 56.4812L272.202 65.7667H270.836L269.815 62.7552ZM269.454 61.6956L268.148 57.8754C268.058 57.6338 267.973 57.3735 267.893 57.0947H267.473L267.217 57.8754L265.911 61.6956H269.454ZM282.187 57.2341H278.84V65.7667H277.518V57.2341H274.186V56.1466H282.187V57.2341ZM289.711 55.9653C291.232 55.9653 292.293 56.3302 292.894 57.0598C293.494 57.7895 293.794 59.0884 293.794 60.9567C293.794 62.8249 293.494 64.1239 292.894 64.8535C292.293 65.5832 291.232 65.948 289.711 65.948C288.19 65.948 287.126 65.5832 286.521 64.8535C285.915 64.1239 285.612 62.8249 285.612 60.9567C285.612 59.0884 285.915 57.7895 286.521 57.0598C287.126 56.3302 288.19 55.9653 289.711 55.9653ZM289.711 57.0668C288.69 57.0668 287.985 57.3479 287.594 57.9103C287.204 58.4726 287.009 59.4881 287.009 60.9567C287.009 62.4253 287.204 63.4407 287.594 64.0031C287.985 64.5654 288.69 64.8466 289.711 64.8466C290.732 64.8466 291.437 64.5654 291.828 64.0031C292.218 63.4407 292.413 62.4253 292.413 60.9567C292.413 59.4881 292.218 58.4726 291.828 57.9103C291.437 57.3479 290.732 57.0668 289.711 57.0668ZM305.687 65.7667H304.276L303.36 62.7552C303.23 62.3927 303.055 62.1348 302.834 61.9814C302.614 61.8281 302.329 61.7514 301.979 61.7514C301.628 61.7514 301.2 61.7491 300.695 61.7444C300.19 61.7398 299.857 61.7374 299.697 61.7374V65.7667H298.391V56.1466C299.231 56.0629 300.422 56.0211 301.964 56.0211C303.195 56.0211 304.06 56.2186 304.561 56.6136C305.061 57.0087 305.311 57.736 305.311 58.7956C305.311 59.5857 305.164 60.1759 304.869 60.5663C304.573 60.9567 304.085 61.1937 303.405 61.2773V61.347C303.685 61.4121 303.94 61.5632 304.17 61.8002C304.401 62.0372 304.571 62.3462 304.681 62.7273L305.687 65.7667ZM299.697 60.6918H301.934C302.714 60.6825 303.25 60.5523 303.54 60.3014C303.83 60.0504 303.975 59.5717 303.975 58.8653C303.975 58.1682 303.83 57.6965 303.54 57.4502C303.25 57.2039 302.714 57.0807 301.934 57.0807C300.833 57.0807 300.087 57.0854 299.697 57.0947V60.6918ZM313.646 62.3927V65.7667H312.325V62.3788L308.887 56.1466H310.298L312.475 60.2038C312.595 60.4269 312.75 60.7894 312.94 61.2913H313.045C313.205 60.8823 313.36 60.5245 313.511 60.2177L315.688 56.1466H317.084L313.646 62.3927Z" fill="black"/>
<defs>
<linearGradient id="paint0_linear_14_592" x1="46.8514" y1="13.5038" x2="82.8453" y2="49.5602" gradientUnits="userSpaceOnUse">
<stop stop-color="#19A9E5"/>
<stop offset="1" stop-color="#1376C0"/>
</linearGradient>
<linearGradient id="paint1_linear_14_592" x1="22.8514" y1="13.5038" x2="58.8453" y2="49.5602" gradientUnits="userSpaceOnUse">
<stop stop-color="#FFE600"/>
<stop offset="1" stop-color="#FFB800"/>
</linearGradient>
<linearGradient id="paint2_linear_14_592" x1="43.0563" y1="44.9004" x2="54.0171" y2="55.5604" gradientUnits="userSpaceOnUse">
<stop stop-color="#1795D7"/>
<stop offset="1" stop-color="#1586CB"/>
</linearGradient>
<linearGradient id="paint3_linear_14_592" x1="42.1987" y1="59.3797" x2="45.7853" y2="55.7869" gradientUnits="userSpaceOnUse">
<stop stop-color="#BFAC00" stop-opacity="0"/>
<stop offset="1" stop-color="#1A1B03"/>
</linearGradient>
<linearGradient id="paint4_linear_14_592" x1="42.2197" y1="29.6953" x2="45.8063" y2="26.1024" gradientUnits="userSpaceOnUse">
<stop stop-color="#BFAC00" stop-opacity="0"/>
<stop offset="1" stop-color="#1A1B03"/>
</linearGradient>
<linearGradient id="paint5_linear_14_592" x1="0.26953" y1="36" x2="72.3944" y2="36" gradientUnits="userSpaceOnUse">
<stop stop-color="#FFC700"/>
<stop offset="1" stop-color="#FFE500"/>
</linearGradient>
<linearGradient id="paint6_linear_14_592" x1="51.3629" y1="71.9999" x2="51.3629" y2="-3.57276e-05" gradientUnits="userSpaceOnUse">
<stop stop-color="#19A9E5"/>
<stop offset="1" stop-color="#1376C0"/>
</linearGradient>
</defs>
</svg>
