<svg width="480" height="76" viewBox="0 0 480 76" fill="none" xmlns="http://www.w3.org/2000/svg">
<path d="M100.555 49.2766C100.549 48.2341 100.759 47.2012 101.172 46.2411C101.572 45.3128 102.149 44.4687 102.873 43.7548C103.61 43.036 104.486 42.4682 105.448 42.0843C106.441 41.6807 107.506 41.4739 108.581 41.4759C110.678 41.471 112.692 42.2844 114.18 43.7373C115.667 45.1902 116.506 47.1637 116.513 49.2242V49.2607C116.517 50.3192 116.307 51.3679 115.896 52.3463C115.505 53.2918 114.927 54.1516 114.195 54.8759C113.463 55.5909 112.609 56.1734 111.671 56.5965C110.704 57.0413 109.648 57.2709 108.581 57.2688C107.52 57.2796 106.469 57.074 105.494 56.6648C104.518 56.2556 103.64 55.6519 102.915 54.8919C102.157 54.1603 101.557 53.2858 101.151 52.3208C100.746 51.3559 100.543 50.3204 100.555 49.2766V49.2766Z" fill="#0E0D12"/>
<path d="M16.8955 74.5736C13.5297 66.8162 10.7649 60.2392 8.60099 54.8427C6.43709 49.4462 4.72019 44.9772 3.45031 41.4358C2.17888 37.8943 1.2864 35.1596 0.772877 33.2317C0.259355 31.3037 0.00182077 29.9401 0.000274015 29.141C-0.0136218 27.7593 0.501444 26.4229 1.44339 25.3967C2.40393 24.3195 3.8803 23.7802 5.87252 23.7787C7.3837 23.7787 8.56851 23.9139 9.42696 24.1843C10.0093 24.3509 10.5804 24.5534 11.1369 24.7905C11.9598 27.7592 12.8878 30.9125 13.9211 34.2503C14.9543 37.5882 16.0138 40.9086 17.0996 44.2115C18.1994 47.5159 19.2821 50.6692 20.3478 53.6713C21.4135 56.6734 22.3578 59.355 23.1807 61.7159C23.9355 59.6254 24.7421 57.231 25.6006 54.5328C26.459 51.8345 27.3523 49.0519 28.2803 46.1851C29.2084 43.3182 30.1179 40.4171 31.0088 37.4818C31.8997 34.5466 32.7242 31.764 33.4821 29.1341C34.0327 27.3824 34.8061 26.05 35.8022 25.1369C36.7983 24.2238 38.3953 23.768 40.5933 23.7696C41.8534 23.7531 43.1076 23.9409 44.3055 24.3256C45.4021 24.6978 46.0889 24.9508 46.3657 25.0845C47.2567 28.1231 48.218 31.3136 49.2497 34.656C50.2813 37.9984 51.3115 41.2869 52.3401 44.5214C53.3702 47.759 54.3833 50.8622 55.3794 53.8308C56.3756 56.7995 57.2858 59.4302 58.1102 61.7228C59.8936 57.0692 61.7304 51.9796 63.6205 46.454C65.5107 40.9283 67.2415 35.3951 68.813 29.8543C69.4317 27.7653 70.2391 26.2308 71.2352 25.2509C72.2313 24.2709 73.7587 23.7817 75.8175 23.7832C77.6736 23.7832 79.1817 24.0863 80.351 24.6948C81.5204 25.3033 82.17 25.6725 82.3092 25.8069C81.757 28.0342 80.7949 31.1031 79.423 35.0138C78.051 38.9244 76.5042 43.1579 74.7827 47.7142C73.0658 52.2721 71.246 56.9264 69.3234 61.6772C67.4008 66.428 65.5811 70.7283 63.8642 74.5782H51.7136C51.1645 73.1607 50.426 71.0861 49.4979 68.3544C48.5699 65.6228 47.5567 62.6381 46.4585 59.4005C45.3604 56.1629 44.2776 52.8403 43.2104 49.4325C42.1431 46.0248 41.1656 42.9034 40.2777 40.0684C39.3837 42.9034 38.4054 46.0233 37.3428 49.428C36.2801 52.8327 35.216 56.1554 34.1503 59.396C33.083 62.6336 32.1039 65.6182 31.213 68.3499C30.322 71.0816 29.6013 73.1561 29.0506 74.5736H16.8955Z" fill="#0E0D12"/>
<path d="M108.349 22.3624C112.172 22.3348 115.964 23.0215 119.525 24.3861C122.873 25.6629 125.934 27.5713 128.534 30.0036C131.086 32.4137 133.118 35.3039 134.509 38.5017C135.938 41.868 136.673 45.4789 136.673 49.1261C136.673 52.7732 135.938 56.3842 134.509 59.7504C133.119 62.9493 131.087 65.8403 128.534 68.2508C125.926 70.6882 122.867 72.6114 119.521 73.9162C112.335 76.6806 104.352 76.6806 97.1662 73.9162C93.8244 72.6104 90.7685 70.6872 88.1641 68.2508C85.6116 65.8403 83.5798 62.9493 82.1898 59.7504C80.762 56.3839 80.0269 52.773 80.0269 49.1261C80.0269 45.4791 80.762 41.8682 82.1898 38.5017C83.5812 35.3043 85.6129 32.4143 88.1641 30.0036C90.7641 27.5714 93.824 25.6629 97.1709 24.3861C100.733 23.0213 104.526 22.3345 108.349 22.3624V22.3624ZM108.349 65.7713C110.58 65.7931 112.792 65.3625 114.846 64.5065C116.786 63.6997 118.527 62.4918 119.95 60.9651C121.37 59.4267 122.488 57.6424 123.244 55.703C124.052 53.6193 124.454 51.4055 124.43 49.1762C124.446 46.9149 124.045 44.6695 123.244 42.5491C122.51 40.5839 121.391 38.7792 119.95 37.2369C118.514 35.7374 116.776 34.5484 114.846 33.7456C110.671 32.0593 105.988 32.0593 101.813 33.7456C99.9048 34.5561 98.1869 35.7446 96.7672 37.2369C95.3239 38.778 94.2036 40.583 93.4703 42.5491C92.6677 44.6688 92.266 46.9147 92.2847 49.1762C92.2597 51.4056 92.6618 53.6197 93.4703 55.703C94.2271 57.6429 95.3451 59.4274 96.7672 60.9651C98.175 62.4832 99.8951 63.6903 101.813 64.5065C103.879 65.3702 106.105 65.801 108.349 65.7713V65.7713Z" fill="#0E0D12"/>
<path d="M141.062 41.892C141.062 35.6872 143.003 30.881 146.884 27.4732C150.765 24.0654 156.139 22.3616 163.006 22.3616C167.337 22.3616 170.856 22.9518 173.563 24.1323C176.27 25.3128 177.626 27.1177 177.632 29.547C177.623 30.7269 177.284 31.8817 176.653 32.8856C176.002 33.9659 175.47 34.6404 175.057 34.9093C173.66 34.2868 172.213 33.7792 170.73 33.3916C168.815 32.8942 166.84 32.6558 164.86 32.6828C156.825 32.6828 152.803 36.8654 152.795 45.2306V74.574H141.062V41.892Z" fill="#0E0D12"/>
<path d="M179.005 5.36293C179.005 3.5398 179.554 2.19067 180.653 1.31557C181.751 0.440458 183.298 0.00214501 185.293 0.000625726C186.442 -0.0111156 187.588 0.142439 188.692 0.456411C189.722 0.760267 190.409 0.979044 190.752 1.11274V42.4479C191.645 41.8402 192.898 40.9491 194.513 39.7747C196.128 38.6003 197.931 37.3089 199.921 35.9005C201.912 34.4876 203.972 33.0078 206.102 31.4612C208.232 29.9145 210.257 28.4712 212.179 27.1312C213.473 26.1835 214.852 25.3535 216.299 24.6517C217.537 24.079 219.151 23.7926 221.141 23.7926C222.997 23.7926 224.577 24.2818 225.881 25.2602C227.185 26.2386 228.009 27.0651 228.352 27.7397C226.911 29.0174 224.936 30.5815 222.429 32.432C219.922 34.2825 217.362 36.1277 214.749 37.9675C212.14 39.818 209.665 41.534 207.325 43.1156C204.985 44.6972 203.302 45.8571 202.276 46.5955C207.994 50.7485 213.336 55.3782 218.243 60.4331C223.051 65.4012 227.102 70.1148 230.399 74.5739H215.772C214.193 72.6793 212.425 70.7043 210.469 68.6487C208.512 66.5931 206.417 64.5648 204.183 62.5639C201.951 60.5706 199.685 58.6434 197.385 56.7823C195.085 54.9212 192.87 53.2143 190.741 51.6616V74.5739H179.005V5.36293Z" fill="#0E0D12"/>
<path d="M233.405 61.9266C234.222 62.4391 235.084 62.8792 235.98 63.2416C237.478 63.8768 239.008 64.4344 240.565 64.912C242.606 65.5367 244.688 66.0263 246.797 66.3774C249.315 66.7986 251.866 67.0022 254.421 66.9859C257.992 66.9859 260.911 66.5301 263.177 65.6185C265.443 64.7069 266.578 63.139 266.583 60.9148C266.583 59.0248 265.862 57.5914 264.42 56.6145C262.979 55.6376 260.403 54.9463 256.694 54.5406L248.66 53.6291C246.091 53.3941 243.554 52.9024 241.087 52.1614C238.96 51.5388 236.956 50.5639 235.163 49.2786C233.539 48.0905 232.217 46.5492 231.3 44.7755C230.372 42.9888 229.908 40.8473 229.908 38.3512C229.897 36.244 230.335 34.1579 231.196 32.2277C232.115 30.2299 233.509 28.4783 235.261 27.1206C237.117 25.6363 239.538 24.4725 242.523 23.6293C245.508 22.7861 249.131 22.3645 253.39 22.3645C260.532 22.3645 266.078 23.1409 270.028 24.6936C273.978 26.2463 275.949 28.2707 275.94 30.7669C275.957 31.5008 275.798 32.2283 275.476 32.8909C275.189 33.463 274.844 34.0051 274.446 34.5089C274.104 34.9467 273.706 35.3382 273.26 35.6734C272.979 35.901 272.667 36.0883 272.332 36.2295C271.771 35.7555 271.168 35.3321 270.529 34.9647C269.337 34.2696 268.077 33.6933 266.768 33.2441C264.921 32.5997 263.027 32.0923 261.103 31.7263C258.59 31.2608 256.036 31.041 253.479 31.07C245.511 31.07 241.528 33.1271 241.53 37.2413C241.53 38.9961 242.286 40.3285 243.797 41.2386C245.308 42.1486 247.473 42.7723 250.293 43.1096L260.801 44.4268C266.499 45.1697 270.928 46.7042 274.088 49.0302C277.248 51.3562 278.828 54.7792 278.828 59.299C278.828 64.3583 276.785 68.4056 272.699 71.4412C268.612 74.4767 262.723 75.996 255.031 75.999C251.648 76.0261 248.269 75.7554 244.936 75.19C242.267 74.7368 239.632 74.1118 237.047 73.319C235.196 72.7584 233.388 72.0652 231.639 71.2452C230.264 70.5706 229.371 70.0647 228.959 69.7274L233.405 61.9266Z" fill="#0E0D12"/>
<path d="M308.789 22.3624C312.612 22.3348 316.404 23.0215 319.965 24.3861C323.314 25.6633 326.376 27.5717 328.979 30.0036C331.531 32.4137 333.563 35.3039 334.953 38.5017C336.382 41.868 337.118 45.4789 337.118 49.1261C337.118 52.7732 336.382 56.3842 334.953 59.7504C333.563 62.9493 331.532 65.8403 328.979 68.2508C326.371 70.6882 323.311 72.6114 319.965 73.9162C312.78 76.6806 304.797 76.6806 297.611 73.9162C294.265 72.6123 291.205 70.6889 288.597 68.2508C286.045 65.8403 284.013 62.9493 282.623 59.7504C281.195 56.3839 280.46 52.773 280.46 49.1261C280.46 45.4791 281.195 41.8682 282.623 38.5017C284.014 35.3043 286.046 32.4143 288.597 30.0036C291.199 27.5704 294.261 25.6619 297.611 24.3861C301.173 23.0213 304.966 22.3345 308.789 22.3624V22.3624ZM308.789 65.7713C311.02 65.7931 313.232 65.3625 315.286 64.5065C317.226 63.6997 318.967 62.4918 320.39 60.9651C321.811 59.4267 322.928 57.6424 323.685 55.703C324.492 53.6193 324.894 51.4055 324.87 49.1762C324.886 46.9149 324.485 44.6695 323.685 42.5491C322.95 40.5839 321.831 38.7792 320.39 37.2369C318.954 35.7374 317.216 34.5484 315.286 33.7456C311.111 32.0593 306.428 32.0593 302.254 33.7456C300.345 34.5561 298.627 35.7446 297.207 37.2369C295.764 38.778 294.644 40.583 293.91 42.5491C293.108 44.6688 292.706 46.9147 292.725 49.1762C292.7 51.4056 293.102 53.6197 293.91 55.703C294.667 57.6429 295.785 59.4274 297.207 60.9651C298.615 62.4832 300.335 63.6903 302.254 64.5065C304.319 65.3702 306.545 65.801 308.789 65.7713V65.7713Z" fill="#0E0D12"/>
<path d="M341.494 41.8931C341.494 38.6555 342.078 35.8221 343.246 33.3927C344.353 31.0382 345.992 28.9621 348.037 27.3217C350.16 25.6518 352.59 24.3977 355.195 23.6275C358.1 22.7628 361.122 22.3364 364.157 22.3627C368.415 22.3627 372.227 23.1391 375.593 24.6918C378.886 26.1831 381.675 28.5708 383.628 31.5719C385.558 28.5893 388.308 26.204 391.56 24.6918C394.855 23.1391 398.597 22.3627 402.787 22.3627C405.785 22.3404 408.771 22.7497 411.648 23.5774C414.243 24.3102 416.66 25.5504 418.754 27.2237C420.773 28.8776 422.392 30.9512 423.495 33.2947C424.662 35.7256 425.246 38.5583 425.246 41.7928V74.5752H413.502V45.7376C413.502 41.081 412.437 37.7584 410.307 35.7696C408.177 33.7809 405.293 32.7865 401.655 32.7865C398.152 32.7865 395.213 33.8994 392.839 36.1251C390.464 38.3509 389.283 41.9584 389.293 46.9478V74.5752H377.549V46.9478C377.549 41.9539 376.364 38.3448 373.995 36.1206C371.625 33.8964 368.686 32.7835 365.178 32.782C361.607 32.782 358.723 33.7938 356.526 35.8175C354.33 37.8412 353.231 41.1836 353.229 45.8448V74.582H341.485L341.494 41.8931Z" fill="#0E0D12"/>
<path d="M478.04 70.8297C477.488 71.167 476.632 71.6388 475.465 72.2472C474.061 72.9475 472.595 73.5226 471.087 73.9655C469.093 74.5631 467.062 75.0366 465.008 75.383C462.508 75.8045 459.974 76.0074 457.437 75.9892C453.776 76.0187 450.136 75.4377 446.672 74.2709C443.427 73.1754 440.446 71.4354 437.916 69.1593C435.364 66.8389 433.344 64.011 431.992 60.864C430.549 57.5915 429.829 53.8305 429.83 49.581C429.83 45.5337 430.534 41.8403 431.941 38.5009C433.273 35.2677 435.271 32.3396 437.809 29.9003C440.354 27.4828 443.366 25.5905 446.667 24.3351C450.07 23.0194 453.795 22.3616 457.843 22.3616C461.415 22.3616 464.574 22.8174 467.321 23.7289C470.068 24.6405 472.388 25.8559 474.281 27.3752C476.084 28.7844 477.535 30.5784 478.526 32.6212C479.516 34.6639 480.02 36.9016 479.998 39.1641C480.03 41.3754 479.574 43.5673 478.66 45.5884C477.766 47.5118 476.186 49.1648 473.922 50.5473C471.657 51.9299 468.6 53.0085 464.75 53.7834C460.904 54.5582 456.031 54.9456 450.134 54.9456C448.76 54.9456 447.472 54.9289 446.271 54.8955C445.069 54.8621 443.781 54.8112 442.407 54.7428C442.65 56.3977 443.227 57.9884 444.103 59.4217C444.98 60.8551 446.139 62.1024 447.512 63.0905C450.361 65.2175 454.43 66.281 459.72 66.281C461.377 66.2918 463.032 66.156 464.665 65.8754C466.045 65.6388 467.405 65.3005 468.734 64.8635C469.787 64.5167 470.818 64.1119 471.824 63.6511C472.681 63.2455 473.316 62.9416 473.729 62.7396L478.04 70.8297ZM441.881 46.8486C443.46 46.917 444.971 46.9512 446.414 46.9512H450.741C454.515 46.9512 457.571 46.7149 459.908 46.2424C462.245 45.7699 464.066 45.1622 465.37 44.4193C466.674 43.6764 467.532 42.8331 467.945 41.8897C468.353 40.9629 468.563 39.964 468.562 38.9544C468.562 36.3914 467.515 34.4687 465.421 33.1865C463.327 31.9042 460.734 31.2638 457.644 31.2653C455.101 31.2653 452.869 31.7036 450.948 32.5803C449.103 33.3987 447.454 34.5881 446.106 36.0716C444.787 37.5444 443.756 39.2442 443.066 41.0852C442.355 42.9303 441.955 44.877 441.881 46.8486V46.8486Z" fill="#0E0D12"/>
</svg>
